HIERARCHY
ROOT hip
{
	OFFSET 0.000000 0.000000 0.000000 
	CHANNELS 6 Xposition Yposition Zposition Xrotation Zrotation Yrotation
	JOINT abdomen
	{
		OFFSET 0.000000 3.402643 0.000000 
		CHANNELS 3 Xrotation Zrotation Yrotation
		JOINT chest
		{
			OFFSET 0.000000 8.438565 -0.680529 
			CHANNELS 3 Xrotation Zrotation Yrotation
			JOINT neck
			{
				OFFSET 0.000000 10.207942 -0.272212 
				CHANNELS 3 Xrotation Zrotation Yrotation
				JOINT head
				{
					OFFSET 0.000000 3.130431 0.000000 
					CHANNELS 3 Xrotation Zrotation Yrotation
					End Site
					{
						OFFSET 0.000000 3.130435 0.000000 
					}
				}
			}
			JOINT lCollar
			{
				OFFSET 3.470700 6.669187 -0.816635 
				CHANNELS 3 Yrotation Zrotation Xrotation
				JOINT lShldr
				{
					OFFSET 3.198488 0.000000 0.000000 
					CHANNELS 3 Zrotation Yrotation Xrotation
					JOINT lForeArm
					{
						OFFSET 10.139888 0.000000 0.000000 
						CHANNELS 3 Yrotation Zrotation Xrotation
						JOINT lHand
						{
							OFFSET 8.370511 0.000000 0.000000 
							CHANNELS 3 Zrotation Yrotation Xrotation
							End Site
							{
								OFFSET 4.083176 0.000000 0.000000 
							}
						}
					}
				}
			}
			JOINT rCollar
			{
				OFFSET -3.470700 6.669187 -0.816635 
				CHANNELS 3 Yrotation Zrotation Xrotation
				JOINT rShldr
				{
					OFFSET -3.198488 0.000000 0.000000 
					CHANNELS 3 Zrotation Yrotation Xrotation
					JOINT rForeArm
					{
						OFFSET -10.139888 0.000000 0.000000 
						CHANNELS 3 Yrotation Zrotation Xrotation
						JOINT rHand
						{
							OFFSET -8.370511 0.000000 0.000000 
							CHANNELS 3 Zrotation Yrotation Xrotation
							End Site
							{
								OFFSET -4.083176 0.000000 0.000000 
							}
						}
					}
				}
			}
		}
	}
	JOINT lThigh
	{
		OFFSET 5.308129 -1.633274 1.361059 
		CHANNELS 3 Xrotation Zrotation Yrotation
		JOINT lShin
		{
			OFFSET -2.041588 -20.007561 0.000000 
			CHANNELS 3 Xrotation Zrotation Yrotation
			JOINT lFoot
			{
				OFFSET 0.000000 -19.190928 -1.224953 
				CHANNELS 3 Xrotation Yrotation Zrotation
				End Site
				{
					OFFSET 0.000000 -2.449906 4.627600 
				}
			}
		}
	}
	JOINT rThigh
	{
		OFFSET -5.308129 -1.633274 1.361059 
		CHANNELS 3 Xrotation Zrotation Yrotation
		JOINT rShin
		{
			OFFSET 2.041588 -20.007561 0.000000 
			CHANNELS 3 Xrotation Zrotation Yrotation
			JOINT rFoot
			{
				OFFSET 0.000000 -19.190928 -1.224953 
				CHANNELS 3 Xrotation Yrotation Zrotation
				End Site
				{
					OFFSET 0.000000 -2.449906 4.627600 
				}
			}
		}
	}
}
MOTION
Frames: 16
Frame Time: 0.033333
0.389249 51.554733 -0.729629 -2.667707 1.629068 2.686682 0.000000 0.000000 0.000000 17.923330 -3.105462 0.117015 -11.570757 3.710039 -4.344527 21.680084 -2.401620 -1.407879 -3.521967 9.154817 6.304141 -93.526085 -7.966086 -24.991194 -17.839119 6.606172 29.675417 -6.750047 0.643332 -7.085546 3.089181 -14.089146 8.026228 94.421043 15.736362 -16.387117 9.736394 -5.555593 54.371086 4.772134 14.475461 -6.013932 -3.153484 8.600130 9.415808 15.564432 -2.812980 -17.271200 -3.847582 0.060207 -0.112361 -1.464428 -6.680696 -13.680038 16.999804 0.292828 -3.717683 -10.581861 0.165580 -1.899922 
0.798250 51.624268 -0.660992 -2.695383 1.414368 2.764517 0.000000 0.000000 0.000000 18.048307 -0.419919 -0.195379 -10.970613 4.108957 -4.405605 21.559175 -2.977806 -1.251863 -3.521967 9.154817 6.304141 -95.182518 -7.972450 -24.377985 -17.363581 6.321992 29.750992 -7.273736 1.620742 -7.160491 3.089181 -14.089146 8.026228 90.442459 17.300734 -19.749781 10.152143 -6.325592 48.965790 4.404088 14.593874 -6.090010 -2.939482 8.124931 9.012701 15.241819 -2.540271 -16.336369 -4.061634 0.072593 -0.361207 -0.996298 -6.854463 -13.726761 16.133720 0.309139 -3.576342 -9.459433 0.144974 -1.796288 
1.264252 51.662128 -0.609709 -2.660073 1.365664 2.705938 0.000000 0.000000 0.000000 17.898289 1.786979 -0.693631 -10.327680 4.468981 -4.446719 21.653391 -3.085323 -1.144601 -3.521967 9.154817 6.304141 -96.500229 -7.810913 -23.781549 -17.052214 6.098218 29.402164 -9.770881 2.375114 -7.035654 3.089181 -14.089146 8.026228 85.954002 19.307961 -24.772787 11.016655 -7.636396 43.483547 1.566546 12.722598 -6.893625 -2.528060 7.571185 8.813161 14.559679 -2.621109 -15.604323 -4.599528 0.064271 -0.121119 -0.820674 -7.284306 -13.841920 15.763957 0.231240 -3.338042 -8.767536 0.127000 -1.683035 
1.769621 51.719830 -0.565315 -2.497064 1.492439 2.735481 0.000000 0.000000 0.000000 17.555210 3.114409 -1.320126 -9.837720 4.875900 -4.743451 21.418640 -2.870442 -1.222595 -3.521967 9.154817 6.304141 -97.356529 -7.583840 -23.265919 -16.939219 6.013783 29.364199 -11.343530 2.148068 -6.853605 3.089181 -14.089146 8.026228 80.814400 21.664516 -31.030533 12.276282 -9.089807 39.454685 -1.602609 10.270063 -7.693559 -2.108372 6.849578 8.610055 13.577068 -2.834982 -15.149161 -4.775291 0.065802 -0.173498 -0.713687 -7.955971 -14.032843 15.285595 0.136153 -3.076317 -8.083348 0.098519 -1.617929 
2.316520 51.760956 -0.508487 -2.326972 1.697085 2.872437 0.000000 0.000000 0.000000 16.648201 3.835015 -2.221628 -8.981471 5.087935 -5.019221 20.499649 -2.928853 -1.369393 -3.521967 9.154817 6.304141 -97.925575 -6.943070 -23.075687 -17.033905 6.067636 29.479004 -10.578625 1.870311 -6.876872 3.089181 -14.089146 8.026228 75.101189 24.275251 -38.054714 13.892607 -10.691338 36.619835 -5.317438 7.837774 -8.437028 -1.834751 5.902946 8.116751 12.790928 -2.851910 -14.684391 -4.989788 0.082039 -0.315198 -0.488963 -8.806623 -14.474933 14.722285 0.221715 -2.689601 -7.377722 0.086524 -1.630820 
2.887445 51.762352 -0.450533 -2.220774 1.823768 2.941071 0.000000 0.000000 0.000000 15.361165 3.598217 -3.111598 -8.359483 5.386332 -5.394976 19.680214 -3.309314 -1.565531 -3.521967 9.154817 6.304141 -97.915253 -6.069527 -22.990255 -17.208403 6.157945 29.481371 -9.401112 1.983855 -7.010151 3.089181 -14.089146 8.026228 69.210869 27.242151 -45.924599 15.722157 -12.441640 34.924950 -8.073427 6.176141 -8.904999 -1.425370 5.094908 7.771105 12.029275 -2.970898 -14.316962 -5.692636 0.084738 0.037040 -0.410450 -9.667403 -14.928239 14.577741 0.260785 -2.252340 -6.865981 0.071554 -1.677855 
3.433579 51.746716 -0.443995 -1.978741 1.705978 3.400127 0.000000 0.000000 0.000000 13.493365 2.657129 -4.682654 -8.010921 5.744368 -5.574648 19.015087 -3.768231 -1.507714 -3.521967 9.154817 6.304141 -97.271301 -4.892838 -23.182123 -17.357891 6.274786 29.863480 -7.863631 2.113081 -7.173035 3.089181 -14.089146 8.026228 63.357803 30.737989 -53.711788 17.452162 -14.055808 35.219456 -9.469163 4.390284 -9.093781 -1.277855 4.571632 7.600655 11.248487 -3.156476 -14.224200 -6.314821 0.027458 0.470895 -0.587487 -10.206949 -15.157190 14.690007 0.240947 -2.113326 -6.475485 0.081402 -1.660821 
3.958011 51.705078 -0.430673 -1.799523 1.704459 4.171850 0.000000 0.000000 0.000000 10.966873 0.804652 -6.914611 -7.266227 6.008561 -5.400789 18.254923 -4.325219 -1.205115 -3.521967 9.154817 6.304141 -96.091759 -3.203966 -23.610462 -17.362087 6.312300 30.320801 -5.589250 2.298993 -7.397680 3.089181 -14.089146 8.026228 58.048630 34.224548 -60.175865 18.752594 -15.182647 36.628048 -10.469894 2.369452 -9.186460 -1.364880 3.976015 7.344172 11.124618 -3.242338 -14.310878 -6.908033 -0.011587 0.732341 -0.597547 -10.879855 -15.585971 14.861833 0.299876 -2.284976 -6.234444 0.064442 -1.773793 
4.476744 51.659618 -0.392115 -1.601434 1.887235 5.032351 0.000000 0.000000 0.000000 8.176318 -1.927568 -9.282887 -6.437243 6.465816 -5.375901 17.689541 -5.057929 -0.931870 -3.521967 9.154817 6.304141 -94.511421 -1.240674 -23.809076 -17.204248 6.247228 30.615715 -4.421402 2.497074 -7.518632 3.089181 -14.089146 8.026228 53.546387 37.462959 -65.304733 19.625326 -15.994944 39.542107 -10.783354 0.473192 -9.171109 -1.688688 3.211011 6.951789 11.509589 -3.283315 -14.630750 -7.422875 -0.012928 0.904287 -0.792539 -11.856895 -16.313238 15.570596 0.455425 -2.500126 -6.047650 0.095834 -1.844208 
5.006727 51.579140 -0.399301 -1.070624 2.068582 6.029557 0.000000 0.000000 0.000000 5.501419 -4.753792 -11.662301 -5.785882 6.642086 -5.259478 17.579033 -5.331582 -0.746235 -3.521967 9.154817 6.304141 -93.029106 0.479113 -23.849739 -17.022497 6.165844 30.704292 -4.907617 2.918694 -7.519009 3.089181 -14.089146 8.026228 49.124111 40.431702 -69.513321 19.744802 -16.499666 42.823357 -11.160822 -0.406391 -9.185760 -2.544212 2.435837 6.549071 12.225356 -3.361866 -15.053041 -8.025954 -0.051251 1.113716 -1.572574 -13.006728 -17.096493 16.940111 0.621486 -2.380225 -5.931845 0.118628 -2.057277 
5.544147 51.450371 -0.402212 -0.745266 2.501660 6.832849 0.000000 0.000000 0.000000 3.958076 -6.536068 -13.095189 -5.014639 6.962115 -5.341648 17.774086 -5.605046 -0.707393 -3.521967 9.154817 6.304141 -92.206642 1.206196 -23.375134 -16.796425 6.051714 30.702995 -5.110781 3.345126 -7.546510 3.089181 -14.089146 8.026228 46.186958 39.668869 -72.482132 26.770626 -11.613324 44.462173 -11.558348 -0.649268 -9.216593 -3.178364 1.461475 6.168784 13.168400 -3.479230 -15.242411 -8.807651 -0.077580 1.168520 -2.374453 -14.454883 -18.015938 18.744181 0.653446 -2.002260 -6.127955 0.176791 -2.544454 
6.054162 51.268166 -0.384606 -0.816429 3.167692 7.277129 0.000000 0.000000 0.000000 3.687235 -6.940805 -13.913084 -4.158901 7.321051 -5.414287 17.732862 -6.200813 -0.619018 -3.521967 9.154817 6.304141 -92.127411 1.035662 -22.691513 -16.624422 5.943009 30.432146 -5.431955 3.629864 -7.554131 3.089181 -14.089146 8.026228 44.489407 36.322678 -74.782707 39.854610 -2.005123 42.769745 -12.089188 -0.675891 -9.262683 -3.605839 0.349365 5.860310 14.610545 -3.565142 -15.356618 -9.947529 -0.081298 1.343316 -3.066961 -16.070377 -18.970909 21.190126 0.416241 -1.132784 -6.785309 0.249689 -3.339085 
6.519627 51.053822 -0.362269 -1.190193 3.960359 7.469700 0.000000 0.000000 0.000000 3.897634 -7.005528 -14.584970 -3.459383 7.390286 -5.317435 17.547018 -6.767341 -0.482086 -3.521967 9.154817 6.304141 -92.309074 0.638698 -22.036695 -16.501722 5.887374 30.348982 -5.673701 3.757466 -7.553827 3.089181 -14.089146 8.026228 41.821133 34.391712 -77.067368 50.484753 5.277093 38.878937 -12.198575 -1.169178 -9.259824 -3.906969 -0.703074 5.641170 16.526396 -3.801888 -15.222229 -11.387766 -0.150656 1.716055 -3.955877 -17.681652 -19.453596 24.230618 -0.316428 0.296763 -6.667930 0.324753 -3.731629 
6.885682 50.834293 -0.336676 -1.763671 4.717996 7.251746 0.000000 0.000000 0.000000 4.536129 -6.474305 -15.266271 -3.138467 7.121731 -4.979464 17.401594 -7.568307 -0.216831 -3.521967 9.154817 6.304141 -92.743408 0.127948 -21.555475 -16.397610 5.816321 30.282869 -5.502165 3.934632 -7.585514 3.089181 -14.089146 8.026228 38.338448 34.139030 -79.085938 59.374935 10.576882 36.160767 -11.997974 -2.286291 -9.200226 -4.046615 -1.649046 5.495716 18.509315 -3.929216 -14.804399 -12.624349 -0.194006 1.961249 -4.922329 -19.138832 -19.700216 27.446030 -1.205228 1.772991 -6.261423 0.352036 -3.918215 
7.146340 50.623722 -0.314587 -2.200424 5.353604 6.738810 0.000000 0.000000 0.000000 5.114685 -5.493680 -15.973995 -2.932573 6.592408 -4.354691 17.196180 -8.427681 0.207157 -3.521967 9.154817 6.304141 -93.388458 -0.275055 -21.145578 -16.411682 5.795828 30.081715 -5.200376 4.372565 -7.655036 3.089181 -14.089146 8.026228 34.643700 35.105026 -80.975830 67.320869 14.593066 33.561646 -11.836358 -2.124035 -9.185132 -4.322807 -2.381757 5.458981 20.363039 -4.056538 -14.305252 -13.562747 -0.225071 1.993564 -5.869702 -20.579222 -20.267723 30.218966 -1.635014 3.321613 -6.096726 0.377211 -4.150578 
7.323073 50.480026 -0.299653 -2.439100 5.717758 6.272304 0.000000 0.000000 0.000000 5.230494 -4.170809 -16.774532 -2.575319 6.237391 -3.653719 17.166069 -9.481555 0.781857 -3.521967 9.154817 6.304141 -94.149384 -0.566180 -20.630896 -16.332808 5.768222 30.312929 -5.255758 4.629536 -7.690459 3.089181 -14.089146 8.026228 31.168482 36.882210 -82.165733 74.284065 17.501450 30.545435 -11.572815 -1.734007 -9.176230 -4.551568 -2.760487 5.645636 21.561129 -4.306529 -14.084272 -14.062738 -0.159304 1.844433 -6.729125 -21.974764 -21.077782 32.375484 -1.595727 5.602221 -4.999867 0.350706 -4.012316 
